<?xml version="1.0" encoding="UTF-8"?>
<!DOCTYPE svg PUBLIC "-//W3C//DTD SVG 1.1//EN" "http://www.w3.org/Graphics/SVG/1.1/DTD/svg11.dtd">
<svg xmlns="http://www.w3.org/2000/svg" version="1.1" width="991px" height="924px" style="shape-rendering:geometricPrecision; text-rendering:geometricPrecision; image-rendering:optimizeQuality; fill-rule:evenodd; clip-rule:evenodd" xmlns:xlink="http://www.w3.org/1999/xlink">
<g><path style="opacity:0.996" fill="#ce1e2a" d="M 534.5,-0.5 C 554.5,-0.5 574.5,-0.5 594.5,-0.5C 658.615,2.97319 722.282,11.1399 785.5,24C 861.407,39.943 917.907,81.7763 955,149.5C 975.873,187.68 987.706,228.346 990.5,271.5C 990.5,278.5 990.5,285.5 990.5,292.5C 982.975,379.512 940.975,444.012 864.5,486C 796.289,522.026 726.289,526.026 654.5,498C 620.11,482.39 592.944,458.557 573,426.5C 551.849,389.866 532.515,352.2 515,313.5C 462.407,207.879 392.574,115.046 305.5,35C 380.63,14.4767 456.963,2.64342 534.5,-0.5 Z"/></g>
<g><path style="opacity:0.994" fill="#ce1e2a" d="M -0.5,662.5 C -0.5,657.5 -0.5,652.5 -0.5,647.5C 0.656236,636.935 2.15624,626.268 4,615.5C 11.4745,583.269 18.4745,550.935 25,518.5C 37.4223,446.619 38.4223,374.619 28,302.5C 135.439,350.255 225.773,420.255 299,512.5C 339.535,566.906 348.202,626.239 325,690.5C 295.837,765.345 241.003,802.845 160.5,803C 99.9634,799.663 52.7967,773.163 19,723.5C 7.69584,704.589 1.19584,684.256 -0.5,662.5 Z"/></g>
<g><path style="opacity:0.993" fill="#ce1e2a" d="M 575.5,923.5 C 571.167,923.5 566.833,923.5 562.5,923.5C 518.505,920.924 484.005,901.59 459,865.5C 449.242,848.3 444.742,829.8 445.5,810C 447.606,779.831 449.773,749.665 452,719.5C 452.99,687.648 450.99,655.981 446,624.5C 442.418,603.92 438.085,583.586 433,563.5C 521.259,589.774 597.593,635.44 662,700.5C 689.078,731.449 699.745,767.449 694,808.5C 683.708,877.297 644.208,915.63 575.5,923.5 Z"/></g>
</svg>
